<svg width="41" height="41" viewBox="0 0 41 41" fill="none" xmlns="http://www.w3.org/2000/svg">
<path d="M4.61669 19.9243C3.47665 20.9715 0.931007 20.5335 0.660736 19.9243C0.832783 21.8757 0.832782 25.7784 3.60931 30.6693C6.45594 35.6837 12.283 38.549 14.6664 39.2655C17.0498 39.9817 20.7987 40.698 25.3303 39.6112C29.2028 38.6825 34.9757 35.1349 34.2497 34.6876C33.166 34.0199 29.0651 36.7379 25.0355 37.3306C22.3912 37.7197 18.2784 37.7752 18.2784 36.6144C18.2784 34.9521 20.4865 37.7505 29.1143 34.6876C36.9525 31.9049 41.1114 24.0273 40.2204 23.1027C39.4588 22.3122 37.2228 28.2405 30.4902 31.18C25.9937 33.1432 19.9311 33.2222 20.1457 32.0446C20.3605 30.867 23.8561 32.4963 30.7114 29.2287C41.6456 24.0166 39.9748 12.2095 38.5742 12.2095C37.3457 12.2095 39.6307 19.5457 32.3085 24.6589C27.7387 27.85 21.448 28.9075 21.448 27.8453C21.448 26.7832 26.8045 27.4069 31.9399 22.6581C35.6061 19.2679 37.3306 14.7558 35.3561 9.10757C34.1526 5.66517 31.5572 3.4579 29.0564 2.04728C22.3806 -1.71817 13.5422 0.164554 8.5589 4.02413C3.81827 7.69584 1.22493 12.5907 2.2592 13.2495C3.29346 13.9085 3.10543 11.4609 7.4305 7.60134C11.7557 3.74176 17.0211 1.95316 23.0387 2.98865C29.0563 4.02413 31.9399 8.26033 31.9399 12.7529C31.9399 17.988 28.5862 23.1027 20.1457 22.8556C16.2933 22.7429 13.143 18.3248 15.4527 16.3345C16.6566 15.2971 19.5073 14.2374 23.3896 16.3345C27.2718 18.4317 25.9695 14.2349 21.9399 12.7529C12.3231 9.21596 6.04187 18.6151 4.61669 19.9243Z" fill="#F5F5EE"/>
</svg>
